<?xml version="1.0" encoding="UTF-8"?>
<svg xmlns="http://www.w3.org/2000/svg" xmlns:xlink="http://www.w3.org/1999/xlink" width="500px" height="500px" viewBox="0 0 500 500" version="1.1">
<g id="surface1">
<path style=" stroke:none;fill-rule:nonzero;fill:rgb(0%,0%,0%);fill-opacity:1;" d="M 53.332031 31.65625 C 23.5 48.304688 17 52.546875 14.667969 57.277344 C 11.832031 62.5 11.667969 75.066406 11.667969 250.980469 C 11.667969 458.222656 11 444.355469 22 452.675781 C 25 454.796875 41 464.097656 57.5 473.402344 C 81.667969 486.78125 88.832031 490.046875 94.167969 490.046875 C 99.5 490.046875 105.832031 487.273438 127.5 474.871094 C 142.167969 466.546875 157.332031 457.898438 161.167969 455.777344 C 178 446.3125 181.332031 433.746094 169.332031 423.957031 C 162.332031 418.242188 156 420.039062 125 437.335938 C 109 446.3125 95.167969 453.65625 94 453.65625 C 91.667969 453.65625 47.832031 429.015625 46.332031 426.730469 C 45.667969 425.914062 45 346.933594 45 251.304688 C 45 155.679688 45.667969 76.695312 46.332031 75.71875 C 47 74.738281 60 66.742188 75.332031 58.09375 C 104 41.777344 111.667969 35.410156 111.667969 28.230469 C 111.667969 19.09375 103.332031 11.421875 93.667969 11.421875 C 91 11.421875 74.5 19.746094 53.332031 31.65625 Z M 102.167969 23.007812 C 107.832031 30.515625 103.832031 34.59375 73.332031 52.054688 C 58.332031 60.703125 44.667969 69.84375 42.667969 72.292969 C 39.332031 76.859375 39.332031 77.511719 39.167969 251.957031 C 39.167969 403.882812 39.5 427.546875 41.667969 429.992188 C 44 432.769531 53.167969 438.96875 60.832031 443.046875 C 62.667969 444.191406 70 448.105469 77.332031 452.023438 C 84.5 455.941406 92.332031 459.039062 94.832031 458.878906 C 99 458.714844 105 455.777344 137.667969 437.664062 C 156.5 427.21875 161.667969 425.914062 166.5 430.644531 C 170.832031 434.890625 171 439.132812 167.167969 443.539062 C 163.832031 447.292969 109.167969 478.949219 99.667969 482.703125 C 91.667969 485.804688 91.167969 485.640625 32 451.371094 C 27 448.597656 22 444.355469 20.667969 441.90625 C 18.667969 438.152344 18.332031 407.964844 18.332031 249.835938 L 18.332031 62.171875 L 22 58.09375 C 27.667969 51.730469 90 17.789062 94.832031 18.277344 C 97 18.601562 100.332031 20.722656 102.167969 23.007812 Z M 102.167969 23.007812 "/>
<path style=" stroke:none;fill-rule:nonzero;fill:rgb(0%,0%,0%);fill-opacity:1;" d="M 235.832031 28.71875 C 218.332031 38.347656 201.667969 47.976562 198.5 50.261719 C 188 57.929688 188.332031 54.015625 188.332031 177.382812 C 188.332031 281.003906 188.5 290.144531 191.332031 295.367188 C 194.167969 301.078125 204 307.441406 248.5 332.082031 C 270.5 344.320312 272.667969 344.15625 297.832031 329.960938 C 406.667969 268.277344 412.832031 264.6875 416.667969 259.953125 C 421.667969 253.589844 421 247.0625 414.332031 240.535156 C 404.332031 230.742188 403.667969 230.90625 333.332031 271.050781 C 321.832031 277.578125 305 287.042969 295.832031 292.101562 C 286.667969 297.160156 277.5 302.382812 275.5 303.523438 C 272.167969 305.644531 271.167969 305.644531 267.167969 303.363281 C 264.5 301.894531 253.667969 295.855469 243 289.816406 L 223.332031 278.71875 L 223.332031 176.566406 L 223.5 74.25 L 251.332031 58.746094 C 284.332031 40.308594 288.332031 37.042969 288.332031 28.066406 C 288.332031 22.847656 287.167969 20.398438 283.167969 16.480469 C 274.832031 8.324219 271.332031 9.300781 235.832031 28.71875 Z M 279.332031 22.03125 C 285.332031 31.167969 280.832031 35.410156 240.167969 58.09375 C 229.167969 64.132812 221.667969 69.515625 219.832031 72.617188 C 216.832031 77.1875 216.667969 83.0625 216.667969 176.566406 C 216.667969 245.921875 217.167969 276.761719 218.5 279.699219 C 220.832031 284.59375 260.832031 308.257812 269 309.5625 C 275.832031 310.542969 273.332031 311.847656 324.167969 283.125 C 381.5 250.816406 380 251.632812 390.5 246.246094 C 401.832031 240.535156 405.832031 240.699219 410.5 246.734375 C 413.667969 250.816406 413.667969 251.304688 411 255.222656 C 408.5 259.136719 402.5 263.382812 389.5 270.722656 C 386.5 272.355469 374 279.535156 361.667969 286.390625 C 335.5 301.078125 328.167969 305.320312 300 321.636719 C 271.167969 338.285156 272.332031 338.285156 235 317.394531 C 219 308.421875 203.667969 299.117188 200.832031 296.671875 L 195.832031 292.429688 L 195.332031 179.175781 C 194.832031 52.21875 194 59.890625 207.167969 51.894531 C 211 49.609375 223.832031 42.429688 235.5 35.902344 C 247.332031 29.535156 259.332031 22.847656 262.167969 21.050781 C 269.667969 16.644531 276 16.972656 279.332031 22.03125 Z M 279.332031 22.03125 "/>
<path style=" stroke:none;fill-rule:nonzero;fill:rgb(0%,0%,0%);fill-opacity:1;" d="M 395.832031 12.890625 C 394 13.707031 374 24.804688 351.667969 37.53125 C 329.167969 50.425781 300.332031 66.742188 287.5 73.921875 C 260.5 88.9375 258.667969 90.40625 255.5 97.421875 C 251 108.191406 260.832031 120.429688 272.5 118.636719 C 278 117.820312 286.332031 113.414062 364 69.515625 C 384 58.257812 401.667969 48.957031 403.167969 48.957031 C 404.667969 48.957031 408.667969 50.75 412 53.035156 C 415.332031 55.320312 418.5 57.113281 418.832031 57.113281 C 419.167969 57.113281 426.5 61.03125 435.167969 65.925781 L 450.832031 74.738281 L 451.332031 90.730469 C 451.832031 110.476562 451.332031 112.597656 446.167969 108.191406 C 442.667969 105.089844 439.167969 103.132812 417 90.894531 C 403.667969 83.714844 399.167969 84.691406 367.5 102.808594 C 263.167969 161.878906 261.332031 163.023438 257.5 168.570312 C 255.332031 171.835938 255 179.503906 254.832031 214.097656 C 254.667969 242.167969 255.332031 257.015625 256.5 259.300781 C 258.832031 263.542969 266.667969 267.625 272.332031 267.625 C 274.667969 267.625 279.167969 265.339844 282.5 262.566406 L 288.332031 257.507812 L 288.332031 186.519531 L 325.5 165.632812 C 345.832031 154.046875 371.5 139.523438 382.332031 133.324219 L 402.332031 121.734375 L 409.832031 125.816406 C 414 128.101562 429.167969 136.75 443.5 144.910156 C 471.5 161.0625 477.667969 162.859375 482.332031 156.332031 C 486.167969 151.109375 486.332031 64.296875 482.5 57.113281 C 480 52.382812 471.332031 46.835938 431.332031 24.640625 C 410.167969 12.890625 402.167969 10.28125 395.832031 12.890625 Z M 435.5 33.941406 C 470.167969 53.6875 474.5 56.460938 477 60.703125 C 478.5 63.316406 479.167969 75.71875 479.667969 102.480469 C 480.167969 141.808594 478.832031 153.394531 474 153.394531 C 471.667969 153.394531 459.332031 146.703125 416.832031 122.878906 C 411.667969 119.941406 405.332031 117.492188 402.667969 117.492188 C 398.332031 117.492188 386 124.019531 321.332031 160.738281 C 319.832031 161.554688 312 165.960938 304.167969 170.367188 C 281 183.421875 281.667969 182.113281 281.667969 219.15625 C 281.667969 236.457031 281.167969 252.121094 280.667969 254.078125 C 280.167969 256.039062 277.5 258.484375 274.832031 259.464844 C 270.832031 261.097656 269.332031 261.097656 266 258.976562 C 263.832031 257.507812 261.832031 254.730469 261.332031 252.609375 C 261 250.488281 260.667969 232.375 260.667969 212.140625 C 260.832031 183.257812 261.332031 174.609375 263.167969 171.835938 C 264.5 169.875 271.667969 164.816406 279 160.574219 C 286.5 156.332031 297.832031 149.804688 304.167969 145.886719 C 310.667969 142.132812 318.5 137.566406 321.667969 135.769531 C 324.832031 134.136719 335 128.425781 344.167969 123.203125 C 390.667969 96.605469 397.667969 93.015625 402 93.015625 C 407.167969 93.015625 413.832031 95.789062 427.5 103.785156 C 432.167969 106.558594 438.667969 109.988281 442 111.457031 C 453.832031 116.839844 457.832031 110.640625 457.5 87.792969 C 457 71.800781 455.5 69.84375 432 56.789062 C 411 45.203125 404.167969 42.265625 400.332031 43.242188 C 398.167969 43.734375 373.332031 57.113281 345.332031 72.945312 C 317.167969 88.9375 289 104.4375 282.832031 107.539062 C 272 112.925781 271 113.085938 267 110.804688 C 260.832031 107.539062 260.167969 99.871094 265.332031 95.136719 C 267.5 93.179688 289.5 80.125 314.167969 66.089844 C 339 52.054688 363.332031 38.023438 368.332031 35.085938 C 389.667969 22.519531 400.667969 17.625 405.332031 18.601562 C 408 19.09375 421.5 25.945312 435.5 33.941406 Z M 435.5 33.941406 "/>
<path style=" stroke:none;fill-rule:nonzero;fill:rgb(0%,0%,0%);fill-opacity:1;" d="M 148.167969 53.6875 L 143.332031 58.421875 L 143.332031 368.800781 L 148.167969 374.019531 C 152.167969 378.425781 154.167969 379.40625 160 379.40625 C 165.832031 379.40625 167.832031 378.425781 171.832031 374.019531 L 176.667969 368.800781 L 176.667969 215.40625 C 176.667969 100.03125 176.167969 61.03125 174.667969 57.929688 C 170.167969 48.304688 156 46.019531 148.167969 53.6875 Z M 167.832031 59.890625 C 170.667969 63.96875 170.832031 73.433594 170.832031 214.753906 C 170.832031 360.476562 170.667969 365.371094 167.667969 368.636719 C 164 372.550781 157.332031 373.042969 152.5 369.453125 C 149.167969 367.003906 149.167969 365.046875 149.167969 214.753906 C 149.167969 67.230469 149.332031 62.171875 152.332031 58.910156 C 157 54.015625 164.167969 54.339844 167.832031 59.890625 Z M 167.832031 59.890625 "/>
<path style=" stroke:none;fill-rule:nonzero;fill:rgb(0%,0%,0%);fill-opacity:1;" d="M 83.832031 89.425781 C 81.832031 90.894531 79.332031 94.320312 78.5 96.769531 C 76 103.296875 76 398.988281 78.5 406.003906 C 81.832031 415.46875 93 418.898438 103.5 413.675781 C 106.167969 412.207031 109.167969 409.269531 110 406.984375 C 112.5 400.785156 112.167969 100.359375 109.832031 95.789062 C 106.667969 89.753906 101.167969 86.488281 94.167969 86.488281 C 90.332031 86.488281 86 87.792969 83.832031 89.425781 Z M 102.332031 96.605469 C 104.667969 99.871094 105 117.332031 105 251.304688 C 105 401.109375 105 402.414062 101.667969 406.003906 C 97.332031 410.410156 91 410.574219 86.667969 406.332031 C 83.332031 403.066406 83.332031 401.4375 83.667969 250.328125 C 84.167969 101.339844 84.167969 97.585938 87.332031 95.300781 C 92.332031 91.875 99.332031 92.363281 102.332031 96.605469 Z M 102.332031 96.605469 "/>
<path style=" stroke:none;fill-rule:nonzero;fill:rgb(0%,0%,0%);fill-opacity:1;" d="M 381.332031 169.550781 C 339.5 192.394531 324 202.023438 321.832031 206.757812 C 315.667969 219.972656 328.667969 234.335938 342.667969 229.4375 C 345.332031 228.460938 360.167969 220.464844 375.332031 211.652344 L 403 195.660156 L 411 200.554688 C 415.5 203.164062 426.5 209.367188 435.5 214.425781 L 451.667969 223.726562 L 451.667969 427.382812 L 442.167969 432.605469 C 417.832031 446.148438 393.832031 460.671875 390 464.425781 C 383.667969 470.464844 384.5 480.417969 391.667969 486.78125 C 396.332031 490.863281 398 491.351562 403.5 490.535156 C 411.667969 489.230469 472.332031 455.777344 479.167969 448.761719 L 484.167969 443.699219 L 484.167969 207.570312 L 480 203.164062 C 477.832031 200.882812 463.5 191.90625 448.332031 183.257812 C 415.667969 164.492188 406.332031 159.921875 402.167969 159.921875 C 400.5 159.921875 391 164.328125 381.332031 169.550781 Z M 431.5 180.808594 C 477.167969 206.59375 476 205.613281 478.167969 215.242188 C 479.167969 219.8125 479.667969 264.359375 479.5 330.449219 C 479.167969 437.664062 479.167969 438.152344 475.667969 443.046875 C 473.332031 446.3125 461 453.980469 440.667969 465.242188 C 423.332031 474.871094 407.5 483.191406 405.332031 483.84375 C 395.667969 486.617188 389.167969 473.890625 396.832031 466.875 C 400.667969 463.285156 442.332031 438.96875 444.5 438.96875 C 445.332031 438.96875 448.667969 436.359375 451.832031 433.09375 L 457.5 427.382812 L 457.332031 325.390625 L 457.332031 223.5625 L 453.332031 219.484375 C 449.667969 215.566406 426.167969 201.371094 411.832031 194.191406 C 407 191.90625 403.167969 191.089844 400.332031 191.742188 C 398 192.230469 384 199.738281 369.167969 208.222656 C 341 224.214844 335.832031 226.011719 330 220.300781 C 321.832031 212.304688 327.332031 206.429688 362.167969 187.171875 C 397.5 167.589844 399.5 166.613281 404.667969 167.429688 C 407.167969 167.917969 419.167969 173.957031 431.5 180.808594 Z M 431.5 180.808594 "/>
<path style=" stroke:none;fill-rule:nonzero;fill:rgb(0%,0%,0%);fill-opacity:1;" d="M 393 312.171875 C 385.5 318.375 385 320.984375 385 356.886719 L 384.832031 390.828125 L 362 403.71875 C 349.5 410.738281 331.667969 420.855469 322.5 425.914062 C 313.332031 430.972656 298 439.621094 288.5 445.007812 L 271.332031 454.796875 L 256.832031 446.636719 C 249 442.070312 238.332031 436.195312 233.332031 433.421875 L 224.167969 428.199219 L 223.667969 410.738281 C 223.5 401.109375 223.667969 393.277344 224.332031 393.277344 C 224.832031 393.277344 234.5 398.335938 245.667969 404.699219 C 258.167969 411.714844 268 416.121094 271 416.121094 C 275.332031 416.121094 283.5 412.042969 310.832031 396.539062 C 314.5 394.582031 323.5 389.523438 330.832031 385.605469 C 349.5 375.488281 353.332031 371.574219 353.332031 362.597656 C 353.332031 356.886719 352.332031 354.601562 348.5 350.683594 C 339.667969 342.035156 336.332031 343.015625 296.832031 366.1875 C 283.667969 373.859375 272.332031 380.222656 271.5 380.222656 C 270.667969 380.222656 257.332031 372.878906 241.667969 363.738281 C 207.332031 343.996094 203 342.6875 194.167969 351.339844 L 188.167969 357.210938 L 189.167969 441.742188 L 193.667969 447.292969 C 196.5 451.042969 208.332031 458.550781 229.5 470.300781 C 265.667969 490.535156 269.667969 492.167969 276.5 489.882812 C 281.332031 488.25 402 420.039062 410.5 414.164062 C 419.832031 407.636719 420.167969 405.1875 419.667969 359.496094 L 419.167969 317.886719 L 413.332031 313.152344 C 406.332031 307.441406 399.167969 306.953125 393 312.171875 Z M 409.167969 319.027344 L 413.332031 322.945312 L 413.332031 401.761719 L 407.167969 407.636719 C 401.832031 412.53125 357.5 438.804688 322.5 457.734375 C 317 460.671875 306.832031 466.382812 300 470.625 C 279.332031 482.867188 273.5 485.3125 267.667969 483.519531 C 260.332031 481.234375 208.5 451.695312 201.667969 445.824219 L 195.832031 440.925781 L 195.332031 400.457031 C 194.832031 360.476562 194.832031 360.148438 198.667969 356.234375 C 204.167969 350.523438 207.667969 351.664062 239.667969 369.613281 C 254.832031 378.101562 269 385.117188 271.167969 385.117188 C 275.332031 385.117188 278.332031 383.648438 305.832031 367.984375 C 331.332031 353.460938 335 351.828125 339.832031 353.460938 C 345.332031 355.417969 348.5 361.617188 346.5 366.1875 C 345.5 368.144531 342.5 371.246094 339.5 373.203125 C 328.832031 380.222656 284.332031 404.699219 277.167969 407.3125 L 269.832031 410.085938 L 248.167969 399.152344 C 230.5 390.175781 226.167969 388.542969 223.332031 390.011719 C 218 392.789062 216.667969 397.191406 216.667969 411.390625 C 216.667969 426.566406 219.5 432.605469 229 437.988281 C 254.667969 452.675781 267.667969 459.039062 271.667969 458.878906 C 277 458.714844 281.832031 456.265625 320.832031 433.910156 C 336.5 425.097656 356.167969 413.839844 364.832031 409.269531 C 373.5 404.535156 383 398.335938 386.167969 395.5625 L 391.667969 390.503906 L 391.667969 357.210938 C 391.667969 328.164062 392.167969 323.433594 394.667969 320.496094 C 397.332031 317.230469 400.5 315.4375 403.832031 315.109375 C 404.5 314.949219 407 316.742188 409.167969 319.027344 Z M 409.167969 319.027344 "/>
</g>
</svg>
