<?xml version="1.0" encoding="UTF-8"?>
<svg xmlns="http://www.w3.org/2000/svg" xmlns:xlink="http://www.w3.org/1999/xlink" width="500px" height="500px" viewBox="0 0 500 500" version="1.1">
<g id="surface1">
<path style=" stroke:none;fill-rule:nonzero;fill:rgb(0%,0%,0%);fill-opacity:1;" d="M 55.832031 30.351562 C 37.5 40.632812 20.332031 51.238281 17.5 53.851562 L 12.5 58.746094 L 12 246.898438 C 11.667969 372.390625 12 436.847656 13.167969 440.765625 C 15.667969 448.761719 19 451.371094 47.5 467.6875 C 82 487.273438 90.832031 491.1875 97.332031 490.046875 C 104.832031 488.578125 164.832031 454.308594 171.332031 447.78125 C 178.667969 440.273438 178.5 433.910156 171 426.566406 C 161.667969 417.429688 159.332031 418.082031 116.167969 442.558594 C 105.167969 448.597656 95.332031 453.65625 94.167969 453.65625 C 91.5 453.65625 48 429.175781 46.332031 426.730469 C 45.667969 425.914062 45 346.933594 45 251.304688 C 45 155.679688 45.667969 76.695312 46.332031 75.71875 C 47 74.574219 57.667969 68.046875 70 61.195312 C 109.167969 39 110.832031 37.695312 110.832031 27.414062 C 110.832031 22.03125 109.832031 20.070312 105.332031 16.15625 C 96.5 8.324219 93 9.300781 55.832031 30.351562 Z M 55.832031 30.351562 "/>
<path style=" stroke:none;fill-rule:nonzero;fill:rgb(0%,0%,0%);fill-opacity:1;" d="M 237.5 27.90625 C 221 37.042969 204.5 46.34375 200.832031 48.792969 C 187.667969 57.277344 188.332031 50.425781 188.332031 177.054688 C 188.332031 281.003906 188.5 290.144531 191.332031 295.367188 C 194.332031 301.238281 195 301.730469 241.832031 328.164062 C 271 344.648438 271 344.648438 297.5 329.960938 C 364.5 292.429688 411.332031 265.175781 415 261.75 C 421.332031 255.710938 420.832031 245.921875 413.667969 239.71875 C 403.667969 230.90625 404.332031 230.742188 335 270.070312 C 283.667969 299.28125 272.832031 305.15625 271.5 305.15625 C 270.667969 305.15625 259.832031 299.28125 247.167969 292.265625 L 224.167969 279.375 L 223.667969 177.21875 L 223.332031 75.066406 L 229.5 71.3125 C 236 67.394531 246 61.519531 269.667969 48.304688 C 287 38.347656 291.332031 31.167969 286.5 20.722656 C 284.332031 15.992188 276.832031 11.421875 271.332031 11.421875 C 269.167969 11.421875 254 18.929688 237.5 27.90625 Z M 237.5 27.90625 "/>
<path style=" stroke:none;fill-rule:nonzero;fill:rgb(0%,0%,0%);fill-opacity:1;" d="M 397.5 12.566406 C 395.667969 13.054688 375.5 24.152344 352.5 37.207031 C 329.667969 50.261719 300 67.070312 286.667969 74.574219 C 259 90.078125 255 93.667969 255 102.808594 C 255 112.433594 261 118.308594 270.332031 118.144531 C 276.167969 117.984375 282 115.535156 300.832031 104.929688 C 313.667969 97.746094 341.332031 82.246094 362.332031 70.332031 C 383.332031 58.582031 401.667969 48.957031 403.167969 49.117188 C 404.667969 49.117188 416 54.832031 428.332031 61.847656 L 450.832031 74.738281 L 451.332031 90.566406 C 451.5 99.378906 451.167969 107.210938 450.5 107.867188 C 449.832031 108.519531 440.5 104.113281 430 98.238281 C 401.332031 81.917969 405 81.265625 347.5 114.066406 C 267.667969 159.757812 262 163.023438 258.5 167.429688 C 255.167969 171.507812 255 173.792969 255 214.097656 C 255 240.046875 255.667969 257.667969 256.667969 259.628906 C 257.667969 261.261719 260.832031 263.871094 263.667969 265.339844 C 270.667969 268.929688 278.667969 267.132812 284 260.933594 L 288.332031 255.875 L 288.332031 222.257812 C 288.332031 203.65625 289 187.664062 289.667969 186.847656 C 291 184.890625 306.5 175.914062 362 144.582031 C 383.832031 132.34375 402.167969 122.390625 403 122.390625 C 403.667969 122.390625 416 129.078125 430 137.238281 C 464.832031 157.3125 471.832031 160.574219 477.332031 159.269531 C 480 158.617188 482.5 156.496094 483.332031 154.046875 C 484.332031 151.761719 485 130.386719 485 106.398438 C 485 68.210938 484.667969 62.171875 482 57.277344 C 479.667969 52.546875 473.667969 48.464844 445 32.472656 C 411.832031 14.035156 404.5 10.933594 397.5 12.566406 Z M 397.5 12.566406 "/>
<path style=" stroke:none;fill-rule:nonzero;fill:rgb(0%,0%,0%);fill-opacity:1;" d="M 152.5 50.914062 C 150.667969 51.894531 147.832031 54.175781 146.332031 56.136719 C 143.667969 59.398438 143.332031 70.167969 143.332031 213.773438 C 143.332031 385.117188 142.5 373.042969 154.332031 377.9375 C 159.167969 379.894531 160.832031 379.894531 165.667969 377.9375 C 177.5 373.042969 176.667969 384.953125 176.667969 215.078125 C 176.667969 100.03125 176.167969 61.03125 174.667969 57.929688 C 171.167969 50.425781 160 46.835938 152.5 50.914062 Z M 152.5 50.914062 "/>
<path style=" stroke:none;fill-rule:nonzero;fill:rgb(0%,0%,0%);fill-opacity:1;" d="M 83.5 89.914062 C 81.5 91.710938 79.167969 95.136719 78.167969 97.421875 C 77.332031 99.707031 76.667969 161.878906 76.667969 251.632812 C 76.667969 383.8125 77 402.414062 79.167969 407.148438 C 85.167969 419.222656 103.167969 419.222656 109.167969 407.148438 C 111.332031 402.414062 111.667969 383.8125 111.667969 251.632812 C 111.667969 161.878906 111 99.707031 110.167969 97.421875 C 107.332031 90.40625 101.667969 86.488281 94.167969 86.488281 C 89.5 86.488281 86.167969 87.628906 83.5 89.914062 Z M 83.5 89.914062 "/>
<path style=" stroke:none;fill-rule:nonzero;fill:rgb(0%,0%,0%);fill-opacity:1;" d="M 363.332031 179.667969 C 329.667969 198.433594 320 205.777344 320 212.957031 C 320 222.585938 327.832031 230.089844 337.667969 230.089844 C 342.832031 230.089844 346.332031 228.296875 376 211.160156 C 389 203.65625 401 197.453125 402.667969 197.453125 C 404.5 197.453125 416 203.164062 428.332031 210.347656 L 450.832031 223.074219 L 451.332031 325.066406 L 451.667969 427.054688 L 421.832031 444.355469 C 405.332031 453.980469 390.667969 463.445312 389.332031 465.40625 C 385.332031 470.953125 385.832031 481.722656 390.5 485.964844 C 396.332031 491.351562 402 491.839844 411 488.085938 C 424.832031 482.050781 472.332031 454.796875 478.332031 449.414062 L 484.167969 444.191406 L 484.167969 207.246094 L 479.167969 202.511719 C 476.5 199.902344 459.667969 189.621094 441.832031 179.667969 C 415.167969 164.652344 408.332031 161.554688 402.667969 161.554688 C 397 161.554688 390.167969 164.816406 363.332031 179.667969 Z M 363.332031 179.667969 "/>
<path style=" stroke:none;fill-rule:nonzero;fill:rgb(0%,0%,0%);fill-opacity:1;" d="M 394 311.519531 C 386 316.253906 385 321.636719 385 358.027344 L 385 390.828125 L 368.667969 399.96875 C 359.832031 404.863281 334.667969 419.058594 312.832031 431.300781 C 291.167969 443.539062 272.332031 453.65625 271.167969 453.65625 C 270.167969 453.65625 259 447.945312 246.667969 440.925781 L 224.167969 428.199219 L 223.667969 412.207031 C 223.5 403.230469 223.832031 395.398438 224.5 394.746094 C 225.167969 394.09375 234.332031 398.335938 244.667969 404.046875 C 255 409.921875 266 415.144531 269.167969 415.632812 C 274.5 416.449219 282.832031 412.695312 308.167969 398.171875 C 310.5 396.703125 320.167969 391.480469 329.5 386.261719 C 338.832031 381.039062 348 375 349.832031 372.550781 C 356.332031 364.554688 353.332031 352.480469 343.832031 347.746094 C 336.167969 343.996094 332 345.625 293.667969 367.820312 L 271.5 380.710938 L 266.167969 377.773438 C 263.167969 376.140625 250.167969 368.636719 237 360.964844 C 208.5 344.648438 203.167969 343.34375 194.832031 350.523438 L 189.167969 355.417969 L 188.667969 396.867188 C 188.332031 434.726562 188.5 438.640625 191.332031 443.863281 C 195.167969 450.71875 199.5 453.65625 236.332031 474.054688 C 259 486.617188 266.5 490.046875 271.5 490.046875 C 276.667969 490.046875 285.167969 485.804688 316 468.34375 C 337 456.429688 365.667969 440.109375 379.667969 432.277344 C 393.832031 424.28125 407.5 416.121094 410.332031 414.328125 C 419.167969 408.125 420 403.882812 420 361.457031 C 420 319.027344 419.332031 315.601562 410 310.867188 C 403.667969 307.605469 400.332031 307.769531 394 311.519531 Z M 394 311.519531 "/>
</g>
</svg>
